P1
9 5
000000110
000000110
000000110
000000110
000000110


