P1
9 5
111111111
110000000
111111111
000000011
111111111
