P1
9 5
001111111
000000011
000000011
000000011
000000011
