P1
 30 25
000001110000111110000011100000
000011111111000001111111110000
000111111000000000000111111000
001111110000000000000011111100
001111100000000000000001111100
001111000000000000000000111100
000110000111000000111000011000
000010001111000000111100010000
000010011101000000101110010000
000010011111000000111110010000
000010011111011110111110010000
000001011110011110011110100000
000001011000000000001100100000
000000100000000000000001000000
000000010000000000000010000000
000000001100000000001100000000
000000000111111111111000000000
000000000111100001111000000000
000000000111100001111000000000
000000000101100001101000000000
000000000100000000001000000000
000000000100000000001000000000
000000000011111111110000000000
000000000011100001110000000000
000000000001100001100000000000
