P1
 18 17
000000000000000000
000000111111000000
000011111100110000
000100111100001000
001001111110001000
001011000011000100
011110000001111110
011110000001100110
010110000001000010
010011000011000010
010011111111100110
010111111111111110
001110010010011100
000100010010001000
000100000000001000
000010000000010000
000001111111100000
