P1
 29 26
00000000000111111110000000000
00000000011000000011100000000
00000001100000000001111000000
00000010000000000000111100000
00000100000000000000111110000
00001000000000110000011111000
00001000000001111000011111000
00010000000001111000011111100
00010000000000110000011111100
00100000000000000000111111110
00100000000000000000111111110
00100000000000000001111111110
00100000000000000111111111110
00100000000001111111111111110
00100000000111111111111111110
00100000001111111111111111110
00100000001111111111111111110
00010000011111001111111111100
00010000011110000111111111100
00001000011110000111111111000
00001000011111001111111111000
00000100001111111111111110000
00000010001111111111111100000
00000001100111111111111000000
00000000011011111111100000000
00000000000111111110000000000
